<?xml version="1.0" encoding="UTF-8"?>
<!DOCTYPE svg PUBLIC "-//W3C//DTD SVG 1.1//EN" "http://www.w3.org/Graphics/SVG/1.1/DTD/svg11.dtd">
<!-- Creator: CorelDRAW (Evaluation Version) -->
<svg xmlns="http://www.w3.org/2000/svg" xml:space="preserve" width="580mm" height="270mm" version="1.1" style="shape-rendering:geometricPrecision; text-rendering:geometricPrecision; image-rendering:optimizeQuality; fill-rule:evenodd; clip-rule:evenodd"
viewBox="0 0 58000 27000"
 xmlns:xlink="http://www.w3.org/1999/xlink"
 xmlns:xodm="http://www.corel.com/coreldraw/odm/2003">
 <defs>
  <style type="text/css">
   <![CDATA[
    .str2 {stroke:#E63B25;stroke-width:7.62;stroke-miterlimit:22.9256}
    .str1 {stroke:red;stroke-width:7.62;stroke-miterlimit:22.9256}
    .str0 {stroke:red;stroke-width:7.62;stroke-linecap:round;stroke-linejoin:round;stroke-miterlimit:22.9256}
    .fil1 {fill:none}
    .fil0 {fill:none;fill-rule:nonzero}
   ]]>
  </style>
 </defs>
 <g id="Layer_x0020_1">
  <metadata id="CorelCorpID_0Corel-Layer"/>
  <g id="s2">
   <path class="fil0 str0" d="M50511.45 22026.38l0 -2290c0,-10 -10,0 0,0l590 0c5.5,0 10,-4.5 10,-10l0 -1200c0,-5.5 -4.5,-10 -10,-10l-590 0c-10,0 0,10 0,0l0 -1180c0,-10 -10,0 0,0l590 0c5.5,0 10,-4.5 10,-10l0 -1200c0,-5.5 -4.5,-10 -10,-10l-590 0c-10,0 0,10 0,0l0 -2290c0,-5.5 -4.5,-10 -10,-10l-2240 0c-10,0 0,10 0,0l0 -590c0,-5.5 -4.5,-10 -10,-10l-1200 0c-5.5,0 -10,4.5 -10,10l0 590c0,10 10,0 0,0l-2240 0c-5.5,0 -10,4.5 -10,10l0 8200c0,5.5 4.5,10 10,10l2240 0c10,0 0,-10 0,0l0 590c0,5.5 4.5,10 10,10l1200 0c5.5,0 10,-4.5 10,-10l0 -590c0,-10 -10,0 0,0l2240 0c5.5,0 10,-4.5 10,-10z"/>
  </g>
  <g id="s1">
   <path class="fil0 str0" d="M7678.13 21236.64l0 -2290c0,-10 -10,0 0,0l590 0c5.5,0 10,-4.5 10,-10l0 -1200c0,-5.5 -4.5,-10 -10,-10l-590 0c-10,0 0,10 0,0l0 -1180c0,-10 -10,0 0,0l590 0c5.5,0 10,-4.5 10,-10l0 -1200c0,-5.5 -4.5,-10 -10,-10l-590 0c-10,0 0,10 0,0l0 -2290c0,-5.5 -4.5,-10 -10,-10l-2240 0c-10,0 0,10 0,0l0 -590c0,-5.5 -4.5,-10 -10,-10l-1200 0c-5.5,0 -10,4.5 -10,10l0 590c0,10 10,0 0,0l-2240 0c-5.5,0 -10,4.5 -10,10l0 8200c0,5.5 4.5,10 10,10l2240 0c10,0 0,-10 0,0l0 590c0,5.5 4.5,10 10,10l1200 0c5.5,0 10,-4.5 10,-10l0 -590c0,-10 -10,0 0,0l2240 0c5.5,0 10,-4.5 10,-10z"/>
  </g>
  <g id="l2" alignment-baseline="hanging" text-anchor="middle">
   <path class="fil0 str0" d="M43468.67 25324.86l0 -1840c0,-10 -10,0 0,0l590 0c5.5,0 10,-4.5 10,-10l0 -1200c0,-5.5 -4.5,-10 -10,-10l-590 0c-10,0 0,10 0,0l0 -1180c0,-10 -10,0 0,0l590 0c5.5,0 10,-4.5 10,-10l0 -1200c0,-5.5 -4.5,-10 -10,-10l-590 0c-10,0 0,10 0,0l0 -1180c0,-10 -10,0 0,0l590 0c5.5,0 10,-4.5 10,-10l0 -1200c0,-5.5 -4.5,-10 -10,-10l-590 0c-10,0 0,10 0,0l0 -1180c0,-10 -10,0 0,0l590 0c5.5,0 10,-4.5 10,-10l0 -1200c0,-5.5 -4.5,-10 -10,-10l-590 0c-10,0 0,10 0,0l0 -1180c0,-10 -10,0 0,0l590 0c5.5,0 10,-4.5 10,-10l0 -1200c0,-5.5 -4.5,-10 -10,-10l-590 0c-10,0 0,10 0,0l0 -1840 0 -600c0,-5.5 -4.5,-10 -10,-10l-2250 0c-5.5,0 -10,4.5 -10,10l0 590c0,10 10,0 0,0l-1180 0c-10,0 0,10 0,0l0 -590c0,-5.5 -4.5,-10 -10,-10l-2250 0c-5.5,0 -10,4.5 -10,10l0 600 0 14500 0 600c0,5.5 4.5,10 10,10l2250 0c5.5,0 10,-4.5 10,-10l0 -590c0,-10 -10,0 0,0l1180 0c10,0 0,-10 0,0l0 590c0,5.5 4.5,10 10,10l2250 0c5.5,0 10,-4.5 10,-10l0 -600z"/>
  </g>
  <g id="l1">
   <path class="fil0 str0" d="M36848.67 25324.86l0 -1840c0,-10 -10,0 0,0l590 0c5.5,0 10,-4.5 10,-10l0 -1200c0,-5.5 -4.5,-10 -10,-10l-590 0c-10,0 0,10 0,0l0 -1180c0,-10 -10,0 0,0l590 0c5.5,0 10,-4.5 10,-10l0 -1200c0,-5.5 -4.5,-10 -10,-10l-590 0c-10,0 0,10 0,0l0 -1180c0,-10 -10,0 0,0l590 0c5.5,0 10,-4.5 10,-10l0 -1200c0,-5.5 -4.5,-10 -10,-10l-590 0c-10,0 0,10 0,0l0 -1180c0,-10 -10,0 0,0l590 0c5.5,0 10,-4.5 10,-10l0 -1200c0,-5.5 -4.5,-10 -10,-10l-590 0c-10,0 0,10 0,0l0 -1180c0,-10 -10,0 0,0l590 0c5.5,0 10,-4.5 10,-10l0 -1200c0,-5.5 -4.5,-10 -10,-10l-590 0c-10,0 0,10 0,0l0 -1840 0 -600c0,-5.5 -4.5,-10 -10,-10l-2250 0c-5.5,0 -10,4.5 -10,10l0 590c0,10 10,0 0,0l-1180 0c-10,0 0,10 0,0l0 -590c0,-5.5 -4.5,-10 -10,-10l-2250 0c-5.5,0 -10,4.5 -10,10l0 600 0 14500 0 600c0,5.5 4.5,10 10,10l2250 0c5.5,0 10,-4.5 10,-10l0 -590c0,-10 -10,0 0,0l1180 0c10,0 0,-10 0,0l0 590c0,5.5 4.5,10 10,10l2250 0c5.5,0 10,-4.5 10,-10l0 -600z"/>
  </g>
  <g id="bottom">
   <path class="fil0 str0" d="M30118.67 25084.86c26.8,0 53.1,7.7 75.7,22.2 22.6,14.5 40.5,35.2 51.6,59.6 11.2,24.5 15.1,51.6 11.3,78.1 -3.8,26.6 -15.2,51.5 -32.8,71.8 -17.6,20.3 -40.6,35.1 -66.4,42.6 -25.7,7.6 -53.1,7.6 -78.8,0 -25.8,-7.5 -48.8,-22.3 -66.4,-42.6 -17.6,-20.3 -29,-45.2 -32.8,-71.8 -3.8,-26.5 0.1,-53.6 11.3,-78.1 11.1,-24.4 29,-45.1 51.6,-59.6 22.6,-14.5 48.9,-22.2 75.7,-22.2z"/>
   <path class="fil0 str0" d="M30828.67 25224.86l0 -1300 0 -1850c0,-5.5 -4.5,-10 -10,-10l-590 0c-10,0 0,10 0,0l0 -1180c0,-10 -10,0 0,0l590 0c5.5,0 10,-4.5 10,-10l0 -1200c0,-5.5 -4.5,-10 -10,-10l-590 0c-10,0 0,10 0,0l0 -1180c0,-10 -10,0 0,0l590 0c5.5,0 10,-4.5 10,-10l0 -1200c0,-5.5 -4.5,-10 -10,-10l-590 0c-10,0 0,10 0,0l0 -1180c0,-10 -10,0 0,0l590 0c5.5,0 10,-4.5 10,-10l0 -1200c0,-5.5 -4.5,-10 -10,-10l-590 0c-10,0 0,10 0,0l0 -1180c0,-10 -10,0 0,0l590 0c5.5,0 10,-4.5 10,-10l0 -1200c0,-5.5 -4.5,-10 -10,-10l-590 0c-10,0 0,10 0,0l0 -1180c0,-10 -10,0 0,0l590 0c5.5,0 10,-4.5 10,-10l0 -1850 0 -1300c0,-124.6 -32.8,-247.1 -95.1,-355 -62.3,-107.9 -152,-197.6 -259.9,-259.9 -107.9,-62.3 -230.4,-95.1 -355,-95.1l-8000 0c-124.6,0 -247.1,32.8 -355,95.1 -107.9,62.3 -197.6,152 -259.9,259.9 -62.3,107.9 -95.1,230.4 -95.1,355l0 1300 0 1850c0,5.5 4.5,10 10,10l590 0c10,0 0,-10 0,0l0 1180c0,10 10,0 0,0l-590 0c-5.5,0 -10,4.5 -10,10l0 1200c0,5.5 4.5,10 10,10l590 0c10,0 0,-10 0,0l0 1180c0,10 10,0 0,0l-590 0c-5.5,0 -10,4.5 -10,10l0 1200c0,5.5 4.5,10 10,10l590 0c10,0 0,-10 0,0l0 1180c0,10 10,0 0,0l-590 0c-5.5,0 -10,4.5 -10,10l0 1200c0,5.5 4.5,10 10,10l590 0c10,0 0,-10 0,0l0 1180c0,10 10,0 0,0l-590 0c-5.5,0 -10,4.5 -10,10l0 1200c0,5.5 4.5,10 10,10l590 0c10,0 0,-10 0,0l0 1180c0,10 10,0 0,0l-590 0c-5.5,0 -10,4.5 -10,10l0 1850 0 1300c0,124.6 32.8,247.1 95.1,355 62.3,107.9 152,197.6 259.9,259.9 107.9,62.3 230.4,95.1 355,95.1l8000 0c124.6,0 247.1,-32.8 355,-95.1 107.9,-62.3 197.6,-152 259.9,-259.9 62.3,-107.9 95.1,-230.4 95.1,-355z"/>
   <path class="fil0 str0" d="M29978.67 8124.86c0,-26.8 7.7,-53.1 22.2,-75.7 14.5,-22.6 35.2,-40.5 59.6,-51.6 24.5,-11.2 51.6,-15.1 78.1,-11.3 26.6,3.8 51.5,15.2 71.8,32.8 20.3,17.6 35.1,40.6 42.6,66.4 7.6,25.7 7.6,53.1 0,78.8 -7.5,25.8 -22.3,48.8 -42.6,66.4 -20.3,17.6 -45.2,29 -71.8,32.8 -26.5,3.8 -53.6,-0.1 -78.1,-11.3 -24.4,-11.1 -45.1,-29 -59.6,-51.6 -14.5,-22.6 -22.2,-48.9 -22.2,-75.7z"/>
   <path class="fil0 str0" d="M27318.67 8824.86l590 0c10,0 0,-10 0,0l0 580c0,10 10,0 0,0l-1180 0c-10,0 0,10 0,0l0 -580c0,-10 -10,0 0,0l590 0z"/>
   <path class="fil0 str0" d="M24918.67 8824.86l590 0c10,0 0,-10 0,0l0 580c0,10 10,0 0,0l-1180 0c-10,0 0,10 0,0l0 -580c0,-10 -10,0 0,0l590 0z"/>
   <path class="fil0 str0" d="M22118.67 8264.86c-26.8,0 -53.1,-7.7 -75.7,-22.2 -22.6,-14.5 -40.5,-35.2 -51.6,-59.6 -11.2,-24.5 -15.1,-51.6 -11.3,-78.1 3.8,-26.6 15.2,-51.5 32.8,-71.8 17.6,-20.3 40.6,-35.1 66.4,-42.6 25.7,-7.6 53.1,-7.6 78.8,0 25.8,7.5 48.8,22.3 66.4,42.6 17.6,20.3 29,45.2 32.8,71.8 3.8,26.5 -0.1,53.6 -11.3,78.1 -11.1,24.4 -29,45.1 -51.6,59.6 -22.6,14.5 -48.9,22.2 -75.7,22.2z"/>
   <path class="fil0 str0" d="M22258.67 25224.86c0,26.8 -7.7,53.1 -22.2,75.7 -14.5,22.6 -35.2,40.5 -59.6,51.6 -24.5,11.2 -51.6,15.1 -78.1,11.3 -26.6,-3.8 -51.5,-15.2 -71.8,-32.8 -20.3,-17.6 -35.1,-40.6 -42.6,-66.4 -7.6,-25.7 -7.6,-53.1 0,-78.8 7.5,-25.8 22.3,-48.8 42.6,-66.4 20.3,-17.6 45.2,-29 71.8,-32.8 26.5,-3.8 53.6,0.1 78.1,11.3 24.4,11.1 45.1,29 59.6,51.6 14.5,22.6 22.2,48.9 22.2,75.7z"/>
   <path class="fil0 str0" d="M24918.67 24524.86l-590 0c-10,0 0,10 0,0l0 -580c0,-10 -10,0 0,0l1180 0c10,0 0,-10 0,0l0 580c0,10 10,0 0,0l-590 0z"/>
   <path class="fil0 str0" d="M27318.67 24524.86l-590 0c-10,0 0,10 0,0l0 -580c0,-10 -10,0 0,0l1180 0c10,0 0,-10 0,0l0 580c0,10 10,0 0,0l-590 0z"/>
  </g>
  <g id="top">
   <path class="fil0 str0" d="M20265.37 24961.56c26.8,0 53.1,7.7 75.7,22.2 22.5,14.5 40.5,35.2 51.6,59.6 11.2,24.4 15.1,51.5 11.2,78.1 -3.8,26.6 -15.2,51.5 -32.7,71.7 -17.6,20.3 -40.6,35.1 -66.4,42.7 -25.7,7.6 -53.1,7.6 -78.9,0 -25.7,-7.6 -48.8,-22.4 -66.3,-42.7 -17.6,-20.2 -29,-45.1 -32.8,-71.7 -3.8,-26.6 0.1,-53.7 11.2,-78.1 11.2,-24.4 29.1,-45.1 51.7,-59.6 22.6,-14.5 48.8,-22.2 75.7,-22.2z"/>
   <path class="fil0 str0" d="M21108.67 25934.86l0 -14500c0,-5.5 -4.5,-10 -10,-10l-8200 0c-5.5,0 -10,4.5 -10,10l0 14500c0,5.5 4.5,10 10,10l8200 0c5.5,0 10,-4.5 10,-10z"/>
   <path class="fil0 str0" d="M20125.37 12268.16c0,-26.8 7.7,-53.1 22.2,-75.7 14.5,-22.5 35.2,-40.5 59.6,-51.6 24.4,-11.2 51.5,-15.1 78.1,-11.2 26.6,3.8 51.5,15.2 71.7,32.7 20.3,17.6 35.1,40.6 42.7,66.4 7.6,25.7 7.6,53.1 0,78.9 -7.6,25.7 -22.4,48.8 -42.7,66.3 -20.2,17.6 -45.1,29 -71.7,32.8 -26.6,3.8 -53.7,-0.1 -78.1,-11.2 -24.4,-11.2 -45.1,-29.1 -59.6,-51.7 -14.5,-22.6 -22.2,-48.8 -22.2,-75.7z"/>
   <path class="fil0 str0" d="M13731.97 12408.16c-26.8,0 -53.1,-7.7 -75.7,-22.2 -22.5,-14.5 -40.5,-35.2 -51.6,-59.6 -11.2,-24.4 -15.1,-51.5 -11.2,-78.1 3.8,-26.6 15.2,-51.5 32.7,-71.7 17.6,-20.3 40.6,-35.1 66.4,-42.7 25.7,-7.6 53.1,-7.6 78.9,0 25.7,7.6 48.8,22.4 66.3,42.7 17.6,20.2 29,45.1 32.8,71.7 3.8,26.6 -0.1,53.7 -11.2,78.1 -11.2,24.4 -29.1,45.1 -51.7,59.6 -22.6,14.5 -48.8,22.2 -75.7,22.2z"/>
   <path class="fil0 str0" d="M13871.97 25101.56c0,26.8 -7.7,53.1 -22.2,75.7 -14.5,22.5 -35.2,40.5 -59.6,51.6 -24.4,11.2 -51.5,15.1 -78.1,11.2 -26.6,-3.8 -51.5,-15.2 -71.7,-32.7 -20.3,-17.6 -35.1,-40.6 -42.7,-66.4 -7.6,-25.7 -7.6,-53.1 0,-78.9 7.6,-25.7 22.4,-48.8 42.7,-66.3 20.2,-17.6 45.1,-29 71.7,-32.8 26.6,-3.8 53.7,0.1 78.1,11.2 24.4,11.2 45.1,29.1 59.6,51.7 14.5,22.6 22.2,48.8 22.2,75.7z"/>
  </g>
  <g id="edges">
   <path class="fil0 str0" d="M11988.67 24684.86l0 -1250 0 -1250c0,-5.5 -4.5,-10 -10,-10l-1250 0 -1250 0c-5.5,0 -10,4.5 -10,10 0,2.7 1.1,5.2 2.9,7.1l2500 2500c1.9,1.8 4.4,2.9 7.1,2.9 5.5,0 10,-4.5 10,-10z"/>
   <path class="fil0 str0" d="M11005.37 23018.16c0,-26.8 7.7,-53.1 22.2,-75.7 14.5,-22.5 35.2,-40.5 59.6,-51.6 24.4,-11.2 51.5,-15.1 78.1,-11.2 26.6,3.8 51.5,15.2 71.7,32.7 20.3,17.6 35.1,40.6 42.7,66.4 7.6,25.7 7.6,53.1 0,78.9 -7.6,25.7 -22.4,48.8 -42.7,66.3 -20.2,17.6 -45.1,29 -71.7,32.8 -26.6,3.8 -53.7,-0.1 -78.1,-11.2 -24.4,-11.2 -45.1,-29.1 -59.6,-51.7 -14.5,-22.6 -22.2,-48.8 -22.2,-75.7z"/>
   <path class="fil0 str0" d="M9168.67 22504.86l0 1250 0 1250c0,5.5 4.5,10 10,10l1250 0 1250 0c5.5,0 10,-4.5 10,-10 0,-2.7 -1.1,-5.2 -2.9,-7.1l-2500 -2500c-1.9,-1.8 -4.4,-2.9 -7.1,-2.9 -5.5,0 -10,4.5 -10,10z"/>
   <path class="fil0 str0" d="M10151.97 24171.56c0,26.8 -7.7,53.1 -22.2,75.7 -14.5,22.5 -35.2,40.5 -59.6,51.6 -24.4,11.2 -51.5,15.1 -78.1,11.2 -26.6,-3.8 -51.5,-15.2 -71.7,-32.7 -20.3,-17.6 -35.1,-40.6 -42.7,-66.4 -7.6,-25.7 -7.6,-53.1 0,-78.9 7.6,-25.7 22.4,-48.8 42.7,-66.3 20.2,-17.6 45.1,-29 71.7,-32.8 26.6,-3.8 53.7,0.1 78.1,11.2 24.4,11.2 45.1,29.1 59.6,51.7 14.5,22.6 22.2,48.8 22.2,75.7z"/>
   <path class="fil0 str0" d="M11988.67 20344.86l0 -1250 0 -1250c0,-5.5 -4.5,-10 -10,-10l-1250 0 -1250 0c-5.5,0 -10,4.5 -10,10 0,2.7 1.1,5.2 2.9,7.1l2500 2500c1.9,1.8 4.4,2.9 7.1,2.9 5.5,0 10,-4.5 10,-10z"/>
   <path class="fil0 str0" d="M11005.37 18678.16c0,-26.8 7.7,-53.1 22.2,-75.7 14.5,-22.5 35.2,-40.5 59.6,-51.6 24.4,-11.2 51.5,-15.1 78.1,-11.2 26.6,3.8 51.5,15.2 71.7,32.7 20.3,17.6 35.1,40.6 42.7,66.4 7.6,25.7 7.6,53.1 0,78.9 -7.6,25.7 -22.4,48.8 -42.7,66.3 -20.2,17.6 -45.1,29 -71.7,32.8 -26.6,3.8 -53.7,-0.1 -78.1,-11.2 -24.4,-11.2 -45.1,-29.1 -59.6,-51.7 -14.5,-22.6 -22.2,-48.8 -22.2,-75.7z"/>
   <path class="fil0 str0" d="M9168.67 18164.86l0 1250 0 1250c0,5.5 4.5,10 10,10l1250 0 1250 0c5.5,0 10,-4.5 10,-10 0,-2.7 -1.1,-5.2 -2.9,-7.1l-2500 -2500c-1.9,-1.8 -4.4,-2.9 -7.1,-2.9 -5.5,0 -10,4.5 -10,10z"/>
   <path class="fil0 str0" d="M10151.97 19831.56c0,26.8 -7.7,53.1 -22.2,75.7 -14.5,22.5 -35.2,40.5 -59.6,51.6 -24.4,11.2 -51.5,15.1 -78.1,11.2 -26.6,-3.8 -51.5,-15.2 -71.7,-32.7 -20.3,-17.6 -35.1,-40.6 -42.7,-66.4 -7.6,-25.7 -7.6,-53.1 0,-78.9 7.6,-25.7 22.4,-48.8 42.7,-66.3 20.2,-17.6 45.1,-29 71.7,-32.8 26.6,-3.8 53.7,0.1 78.1,11.2 24.4,11.2 45.1,29.1 59.6,51.7 14.5,22.6 22.2,48.8 22.2,75.7z"/>
  </g>
  <rect class="fil1 str1" x="15398.68" y="16348.04" width="3200" height="7158.2"/>
  <ellipse class="fil1 str1" cx="16995.54" cy="14416.45" rx="600" ry="599.88"/>
  <path class="fil0 str2" d="M39600.5 18069.76c-406.87,-203.43 -610.3,-406.87 -610.3,-813.75 0,-449.19 364.55,-813.74 813.74,-813.74 813.74,0 1627.49,813.74 2441.23,1627.49 -813.74,813.74 -1627.49,1627.48 -2441.23,1627.48 -449.19,0 -813.74,-364.55 -813.74,-813.74 0,-406.87 203.43,-610.31 610.3,-813.74z"/>
  <circle class="fil1 str1" cx="35557.24" cy="18042.23" r="200"/>
 </g>
</svg>
